HIERARCHY
ROOT Hips
{
	OFFSET	0.00	0.00	0.00
	CHANNELS 6 Xposition Yposition Zposition Zrotation Xrotation Yrotation
	JOINT Spine
	{
		OFFSET	 0.00	0.01	 0.00
		CHANNELS 3 Zrotation Xrotation Yrotation
		JOINT Spine1
		{
			OFFSET	 0.00	 2.45913012437421	 0.00
			CHANNELS 3 Zrotation Xrotation Yrotation
            JOINT Neck
            {
                OFFSET	 0.00	 2.48462964506057	 0.00
                CHANNELS 3 Zrotation Xrotation Yrotation
                JOINT Head
                {
                    OFFSET	 0.00	 0.927524780924562	 0.00
                    CHANNELS 3 Zrotation Xrotation Yrotation
                    End Site 
                    {
                        OFFSET	 0.00	 1.14999962169752	 0.00
                    }
                }
            }
			JOINT LeftShoulder
			{
				OFFSET	 0.00	 2.48462964506057	 0.00
				CHANNELS 3 Zrotation Xrotation Yrotation
				JOINT LeftUpArm
				{
					OFFSET	 0.00	 1.24881979654096	 0.00
					CHANNELS 3 Zrotation Xrotation Yrotation
					JOINT LeftForeArm
					{
						OFFSET	 0.00	2.59758046908119	 0.00
						CHANNELS 3 Zrotation Xrotation Yrotation
						JOINT LeftHand
						{
							OFFSET	 0.00	2.45542024364365	 0.00
							CHANNELS 3 Zrotation Xrotation Yrotation
							JOINT LeftHandThumb 
							{
								OFFSET	 0.00	0.00	 0.00
								CHANNELS 3 Zrotation Xrotation Yrotation
								End Site
								{
									OFFSET	 0.00	0.00	1.00000003353624
								}
							}
							JOINT L_Wrist_End 
							{
								OFFSET	 0.00	0.99999967115358	 0.00
								CHANNELS 3 Zrotation Xrotation Yrotation
								End Site 
								{
									OFFSET	 0.00	 0.00	 0.00
								}
							}
						}
					}
				}
			}
			JOINT RightShoulder
			{
				OFFSET	 0.00	 2.48462964506057	 0.00
				CHANNELS 3 Zrotation Xrotation Yrotation
				JOINT RightUpArm
				{
					OFFSET	 0.00	 1.24881979654096	 0.00
					CHANNELS 3 Zrotation Xrotation Yrotation
					JOINT RightForeArm
					{
						OFFSET	 0.00	2.59758046908119	 0.00
						CHANNELS 3 Zrotation Xrotation Yrotation
						JOINT RightHand
						{
							OFFSET	 0.00	2.45542024364365	 0.00
							CHANNELS 3 Zrotation Xrotation Yrotation
							JOINT RightHandThumb 
							{
								OFFSET	 0.00	0.00	 0.00
								CHANNELS 3 Zrotation Xrotation Yrotation
								End Site
								{
									OFFSET	 0.00	0.00	1.00000003353624
								}
							}
							JOINT R_Wrist_End 
							{
								OFFSET	 0.00	0.99999967115358	 0.00
								CHANNELS 3 Zrotation Xrotation Yrotation
								End Site 
								{
									OFFSET	 0.00	 0.00	 0.00
								}
							}
						}
					}
				}
			}
		}
	}
	JOINT LeftUpLeg
	{
		OFFSET	 1.2719394002717	 0.00	 0.00
		CHANNELS 3 Zrotation Xrotation Yrotation
		JOINT LeftLowLeg
		{
			OFFSET	 0.00	-4.3429100912261	 0.00
			CHANNELS 3 Zrotation Xrotation Yrotation
			JOINT LeftFoot
			{
				OFFSET	 0.00	-4.48767017425826	 0.00
				CHANNELS 3 Zrotation Xrotation Yrotation
				JOINT LeftToeBase
                {
                    OFFSET	 0.00	0.00	 1.51507020887566
                    CHANNELS 3 Zrotation Xrotation Yrotation
                    End Site 
                    {
                        OFFSET	 0.00	0.00	 0.75000010571191
                    }
                }
			}
		}
	}
	JOINT RightUpLeg
	{
		OFFSET	 -1.2719393604653	 0.00	 0.00
		CHANNELS 3 Zrotation Xrotation Yrotation
		JOINT RightLowLeg
		{
			OFFSET	 0.00	-4.3429100912261	 0.00
			CHANNELS 3 Zrotation Xrotation Yrotation
			JOINT RightFoot
			{
				OFFSET	 0.00	-4.48767017425826	 0.00
				CHANNELS 3 Zrotation Xrotation Yrotation
				JOINT RightToeBase
                {
                    OFFSET	 0.00	0.00	 1.51507020887566
                    CHANNELS 3 Zrotation Xrotation Yrotation
                    End Site 
                    {
                        OFFSET	 0.00	0.00	 0.749999965609858
                    }
                }   
			}
		}
	}
}
MOTION 
Frames:	20 
Frame Time: 0.02 
 -4.340090026855469 15.0281005859375 10.384300537109375 -79.4149 84.7005 65.0484 6.54295 -21.3596 -0.28995 -5.55209 37.5515 -0.225128 -0.433606 26.0875 4.79654 22.3165 -69.8707 21.1578 -116.1087 2.92616 -7.59517 -36.2397 0.357722 31.0039 0.0 31.3218 0.0 11.1413 -6.52491 2.45075 0.0 0.0 0.0 0.0 0.0 0.0 122.912796 2.13412 -2.13454 38.058 8.57266 -19.441 0.0 13.9326 0.0 0.0295135 30.8331 20.4004 0.0 0.0 0.0 0.0 0.0 0.0 6.25981 9.65838 18.7557 0.0 0.786759 0.0 -6.19439 9.70465 5.04379 0.0 -13.81937 0.0 5.59307 5.71597 9.76259 0.0 6.68146 0.0 19.9141 9.216869 -23.675 0.0 -12.13398 0.0 
  -4.351029968261718 15.0193994140625 10.38239990234375 -78.6057 84.6658 64.3831 5.86998 -21.5987 -1.3264 -4.14055 37.8118 0.0478017 -2.43469 25.9661 5.82234 20.8327 -69.9447 18.6547 -117.0725 3.27398 -7.84922 -35.9898 0.55801 31.0604 0.0 31.9653 0.0 11.4448 -6.48867 2.37511 0.0 0.0 0.0 0.0 0.0 0.0 121.3197 1.01174 1.32549 39.3513 8.19193 -22.7985 0.0 13.4775 0.0 -0.218646 30.6396 19.9758 0.0 0.0 0.0 0.0 0.0 0.0 6.34395 9.76462 18.4905 0.0 0.811794 0.0 -6.29086 9.6293 5.09286 0.0 -13.78427 0.0 5.67934 5.83321 9.72598 0.0 6.76309 0.0 19.8439 9.07411 -23.8027 0.0 -12.12304 0.0 
  -4.360690002441406 15.012099609375 10.381600341796876 -78.8235 84.6513 64.6587 5.84415 -21.729 -1.40073 -3.96256 37.8737 0.117116 -2.63966 25.923 5.91475 20.5281 -69.8472 18.1994 -117.2044 3.36736 -7.95256 -35.9031 0.926761 30.8763 0.0 32.5722 0.0 11.8875 -6.39093 1.48132 0.0 0.0 0.0 0.0 0.0 0.0 121.162704 1.08484 1.3912 39.2904 8.28277 -22.6347 0.0 13.706 0.0 -0.277257 30.7623 19.7963 0.0 0.0 0.0 0.0 0.0 0.0 6.42476 9.80998 18.2813 0.0 0.78428 0.0 -6.37761 9.59394 5.16966 0.0 -13.74001 0.0 5.77026 5.83305 9.63527 0.0 6.85264 0.0 19.7154 9.03386 -23.835 0.0 -12.22253 0.0 
  -4.370969848632813 15.00050048828125 10.37949951171875 -79.5476 84.6516 65.4085 5.89795 -21.8363 -1.36107 -3.86873 37.7086 0.170972 -2.68792 26.1204 5.89732 20.3719 -69.8101 17.9879 -117.325 3.48513 -8.03017 -35.7864 1.15277 30.8722 0.0 33.0605 0.0 12.5025 -6.27997 1.02665 0.0 0.0 0.0 0.0 0.0 0.0 121.1138 1.00564 1.36894 39.1856 8.38593 -22.5447 0.0 13.963 0.0 -0.380214 30.7919 19.6536 0.0 0.0 0.0 0.0 0.0 0.0 6.49586 9.87878 18.0016 0.0 0.679418 0.0 -6.41212 9.5187 5.31108 0.0 -13.62279 0.0 5.85598 5.80489 9.42956 0.0 6.95375 0.0 19.5311 9.00124 -23.7241 0.0 -12.44066 0.0 
  -4.381310119628906 14.993399658203124 10.376800537109375 -80.5985 84.6868 66.4531 6.0179 -21.9567 -1.25606 -3.93775 37.577 0.136272 -2.65419 26.2061 5.87445 20.2652 -69.6835 17.8608 -117.3268 3.5176 -8.02895 -35.7122 1.48026 30.7943 0.0 33.4244 0.0 12.8675 -6.12743 -0.356937 0.0 0.0 0.0 0.0 0.0 0.0 121.158005 1.04294 1.30865 39.097 8.54809 -22.3441 0.0 14.2049 0.0 -0.495543 30.8903 19.4803 0.0 0.0 0.0 0.0 0.0 0.0 6.55776 9.88395 17.8562 0.0 0.601169 0.0 -6.65615 9.4757595 5.32469 0.0 -13.677 0.0 5.94706 5.62568 9.49377 0.0 7.23457 0.0 19.4182 8.81212 -23.7585 0.0 -12.68694 0.0 
  -4.393139953613281 14.98489990234375 10.373900146484376 -81.9422 84.7344 67.7459 6.16658 -22.0564 -1.08182 -4.06846 37.3971 0.122293 -2.50171 26.2884 5.79417 20.2603 -69.5529 17.8936 -117.2805 3.61471 -8.15276 -35.6589 1.59926 30.7708 0.0 33.727 0.0 13.0173 -6.02349 -0.416296 0.0 0.0 0.0 0.0 0.0 0.0 121.2265 1.04687 1.42237 39.0561 8.52675 -22.1872 0.0 14.4899 0.0 -0.53503 30.9315 19.2683 0.0 0.0 0.0 0.0 0.0 0.0 6.61008 9.91665 17.745 0.0 0.446848 0.0 -6.77126 9.450211 5.32799 0.0 -13.61176 0.0 6.03626 5.42003 9.6052 0.0 7.52836 0.0 19.3116 8.60201 -23.7638 0.0 -12.95908 0.0 
  -4.407309875488282 14.9793994140625 10.370899658203125 -83.1437 84.7418 68.7767 6.30358 -22.0891 -0.933326 -4.13207 37.219 0.119366 -2.45596 26.3899 5.80114 20.2831 -69.4337 17.8952 -117.265305 3.70845 -8.18098 -35.5945 1.72482 30.7381 0.0 33.9218 0.0 13.1715 -5.87989 0.629089 0.0 0.0 0.0 0.0 0.0 0.0 121.2472 1.08737 1.33974 39.0146 8.66249 -21.9143 0.0 14.7614 0.0 -0.578225 31.156 19.4491 0.0 0.0 0.0 0.0 0.0 0.0 6.68833 10.0023 17.613 0.0 0.277576 0.0 -7.01427 9.41621 5.44771 0.0 -13.54621 0.0 6.16126 5.1732 9.72705 0.0 7.91428 0.0 19.1847 8.435659 -23.6729 0.0 -13.17059 0.0 
  -4.422850036621094 14.97 10.368399658203124 -84.067 84.7673 69.6296 6.40894 -22.1169 -0.817665 -4.22785 37.0441 0.079618 -2.13174 26.42 5.54799 20.1353 -69.2519 17.8129 -117.1741 3.83785 -8.30642 -35.596 1.68935 30.7958 0.0 34.0399 0.0 13.2743 -5.79482 0.727874 0.0 0.0 0.0 0.0 0.0 0.0 121.3134 1.07202 1.33505 38.9676 8.70582 -21.7 0.0 15.0889 0.0 -0.684545 31.3087 19.0512 0.0 0.0 0.0 0.0 0.0 0.0 6.75109 10.0975 17.4237 0.0 0.101847 0.0 -7.22002 9.44385 5.59564 0.0 -13.51933 0.0 6.25601 5.02904 9.73874 0.0 8.17691 0.0 19.1001 8.294109 -23.5893 0.0 -13.2404 0.0 
  -4.440660095214843 14.96280029296875 10.366700439453124 -84.7519 84.7761 70.0764 6.57805 -22.1204 -0.608679 -4.40162 36.9563 0.0662733 -2.1258 26.4889 5.68573 20.2971 -68.9719 17.8367 -117.0587 3.96488 -8.41333 -35.5737 1.64633 30.8329 0.0 34.0828 0.0 13.2441 -5.67456 -0.468066 0.0 0.0 0.0 0.0 0.0 0.0 121.371 1.10807 1.30267 38.9622 8.78381 -21.4567 0.0 15.4474 0.0 -0.811097 31.4716 19.1681 0.0 0.0 0.0 0.0 0.0 0.0 6.7907 10.2791 17.5044 0.0 -0.143926 0.0 -7.41324 9.54402 5.69665 0.0 -13.41281 0.0 6.35731 4.9008 9.97431 0.0 8.42839 0.0 19.0801 8.17056 -23.5531 0.0 -13.2031 0.0 
  -4.4614801025390625 14.95050048828125 10.365899658203125 -84.177 84.7505 69.3948 6.70622 -22.1114 -0.469938 -4.58168 36.9261 -0.0053547 -1.81509 26.6317 5.50111 20.1254 -68.5925 17.682 -116.8703 4.05473 -8.25174 -35.592 1.76501 30.9287 0.0 33.9965 0.0 13.3557 -5.66582 0.607145 0.0 0.0 0.0 0.0 0.0 0.0 121.3852 1.13493 1.26451 39.0447 8.78466 -21.1383 0.0 15.7833 0.0 -0.854777 31.6136 19.2083 0.0 0.0 0.0 0.0 0.0 0.0 6.84366 10.6041 17.7279 0.0 -0.452198 0.0 -7.60772 9.7443695 5.55882 0.0 -13.28063 0.0 6.45746 5.00742 10.0761 0.0 8.52096 0.0 19.0241 8.10708 -23.5428 0.0 -13.16696 0.0 
  -4.483370056152344 14.940799560546875 10.364599609375 -84.3774 84.7609 69.4055 6.81461 -22.1044 -0.342892 -4.71035 36.8689 -0.0394284 -1.544 26.8506 5.30174 19.8277 -68.2472 17.4764 -116.7239 4.24182 -8.28758 -35.6068 1.60432 30.9906 0.0 33.8501 0.0 13.2146 -5.71777 0.610553 0.0 0.0 0.0 0.0 0.0 0.0 121.405304 1.15697 1.2535 39.0735 8.7868 -20.8447 0.0 16.0957 0.0 -0.876397 31.8368 19.1049 0.0 0.0 0.0 0.0 0.0 0.0 6.89235 10.818 17.9699 0.0 -0.67261 0.0 -7.82763 9.90326 5.47931 0.0 -13.28217 0.0 6.56654 5.01592 10.5379 0.0 8.6383 0.0 19.0879 7.92814 -23.7547 0.0 -13.03746 0.0 
  -4.508429870605469 14.931099853515626 10.363499755859374 -84.0488 84.7508 69.0938 6.79143 -22.1236 -0.434644 -4.7468 36.9253 -0.17147 -1.44038 26.9949 5.26691 19.4329 -67.7433 17.1161 -116.5522 4.37563 -8.31124 -35.6463 1.48637 31.1221 0.0 33.6909 0.0 13.1129 -5.89892 -0.344959 0.0 0.0 0.0 0.0 0.0 0.0 121.4092 1.17648 1.18675 39.0841 8.86235 -20.5977 0.0 16.4369 0.0 -0.88528 32.0098 19.2404 0.0 0.0 0.0 0.0 0.0 0.0 7.01446 10.9962 18.1213 0.0 -0.803351 0.0 -8.04642 10.04928 5.27106 0.0 -13.28784 0.0 6.68961 5.10806 10.5064 0.0 8.68557 0.0 19.0829 7.88195 -23.7607 0.0 -12.83337 0.0 
  -4.5349600219726565 14.92449951171875 10.3627001953125 -83.7548 84.7007 68.59 6.82283 -22.0833 -0.447147 -4.73085 36.9983 -0.21499 -1.42056 27.3008 5.26256 19.0759 -67.3478 16.7712 -116.4573 4.50837 -8.25121 -35.6468 1.4108 31.2629 0.0 33.4259 0.0 12.9356 -5.98128 0.310814 0.0 0.0 0.0 0.0 0.0 0.0 121.4058 1.22769 1.15048 39.0325 8.93571 -20.429 0.0 16.722 0.0 -1.01847 32.1714 18.9986 0.0 0.0 0.0 0.0 0.0 0.0 7.13428 11.2343 18.416 0.0 -0.948026 0.0 -8.21579 10.177071 5.17313 0.0 -13.28526 0.0 6.84413 5.15072 10.783 0.0 8.80506 0.0 19.2048 7.82116 -23.8019 0.0 -12.5529 0.0 
  -4.562720031738281 14.9168994140625 10.3631005859375 -83.4514 84.6188 68.2505 6.76459 -22.0944 -0.656685 -4.58665 37.185 -0.346316 -1.45329 27.4885 5.28749 18.566 -66.8478 16.2854 -116.4209 4.5546 -8.2496 -35.6748 1.4046 31.3937 0.0 33.1139 0.0 12.5575 -5.96527 1.36241 0.0 0.0 0.0 0.0 0.0 0.0 121.3319 1.32461 1.21255 38.993 8.92169 -20.3498 0.0 17.0164 0.0 -1.14302 32.3608 19.0702 0.0 0.0 0.0 0.0 0.0 0.0 7.32476 11.4024 18.5692 0.0 -1.00956 0.0 -8.3769 10.27697 5.08115 0.0 -13.30134 0.0 7.03707 5.2564 10.9077 0.0 8.84468 0.0 19.294 7.84918 -23.8481 0.0 -12.38636 0.0 
  -4.5934600830078125 14.9072998046875 10.363499755859374 -83.1636 84.5413 67.9748 6.59768 -22.1259 -0.991142 -4.30393 37.3457 -0.446296 -1.65633 27.7784 5.43128 18.0763 -66.3569 15.6947 -116.4047 4.70781 -8.40632 -35.7369 1.08424 31.7168 0.0 32.807 0.0 12.3195 -6.09671 1.69914 0.0 0.0 0.0 0.0 0.0 0.0 121.188995 1.31071 1.27778 38.9709 8.94865 -20.2869 0.0 17.2297 0.0 -1.15514 32.399 18.8473 0.0 0.0 0.0 0.0 0.0 0.0 7.53489 11.5642 18.9161 0.0 -1.05582 0.0 -8.47122 10.421949 4.76262 0.0 -13.3535595 0.0 7.23583 5.42214 10.9841 0.0 8.80115 0.0 19.3596 7.88715 -23.8956 0.0 -12.23376 0.0 
  -4.624410095214844 14.900899658203125 10.363299560546874 -83.2836 84.4868 68.0829 6.38965 -22.1104 -1.36996 -3.93259 37.419 -0.526051 -1.9558 28.1703 5.61905 17.6588 -66.0012 15.1283 -116.509796 4.81818 -8.40977 -35.7262 0.852177 31.8725 0.0 32.5279 0.0 12.0425 -6.15995 2.27071 0.0 0.0 0.0 0.0 0.0 0.0 121.004196 1.31202 1.3534 38.9323 8.89658 -20.1564 0.0 17.4381 0.0 -1.15299 32.4868 18.6491 0.0 0.0 0.0 0.0 0.0 0.0 7.75465 11.6243 19.1173 0.0 -0.999367 0.0 -8.61187 10.4617405 4.60029 0.0 -13.33384 0.0 7.4257 5.54176 11.0619 0.0 8.7395 0.0 19.4138 7.89747 -23.8914 0.0 -12.11781 0.0 
  -4.657770080566406 14.895 10.3622998046875 -83.2274 84.4435 67.9682 6.13179 -22.0133 -1.74826 -3.53206 37.5352 -0.526745 -2.18718 28.2661 5.73721 17.2488 -65.6997 14.568 -116.8301 3.45797 -6.70611 -35.7395 3.55997 31.949 0.0 31.574 0.0 11.716 -6.25382 1.507 0.0 0.0 0.0 0.0 0.0 0.0 120.8336 1.08985 1.51778 38.885 8.99589 -20.1478 0.0 17.5456 0.0 -1.06387 32.6301 18.671 0.0 0.0 0.0 0.0 0.0 0.0 7.96148 11.7162 19.3222 0.0 -0.959707 0.0 -8.78004 10.51921 4.47583 0.0 -13.37275 0.0 7.62214 5.69313 11.3099 0.0 8.6471 0.0 19.4725 7.81842 -24.0168 0.0 -11.96976 0.0 
  -4.6914599609375 14.88969970703125 10.360799560546875 -84.0774 84.4438 68.7864 5.9135 -22.0076 -2.0747 -3.20851 37.388 -0.5712 -2.36004 28.9986 5.82886 17.1627 -65.6553 14.4254 -116.6945 4.8399 -8.39104 -35.7782 0.426775 32.1567 0.0 31.9261 0.0 11.6789 -6.24662 2.42214 0.0 0.0 0.0 0.0 0.0 0.0 120.680405 1.19502 1.36819 38.8181 8.7705 -19.8677 0.0 17.5924 0.0 -1.18791 32.7013 18.1744 0.0 0.0 0.0 0.0 0.0 0.0 8.17358 11.6847 19.598 0.0 -0.884879 0.0 -8.92056 10.564859 4.24946 0.0 -13.3999 0.0 7.80717 5.77094 11.4674 0.0 8.51113 0.0 19.4745 7.76725 -24.0733 0.0 -11.90386 0.0 
  -4.726510009765625 14.884599609375 10.35800048828125 -85.1411 84.4524 69.7649 5.70255 -21.9562 -2.37523 -2.88352 37.4761 -0.557794 -2.52048 28.8621 5.91958 17.0007 -65.5407 14.0831 -117.0495 3.29531 -6.61974 -35.7182 3.23688 32.1884 0.0 31.1002 0.0 11.4729 -6.29145 1.83596 0.0 0.0 0.0 0.0 0.0 0.0 120.5651 0.96824 1.52849 38.7439 8.78212 -19.9161 0.0 17.6558 0.0 -1.24803 32.778 18.5229 0.0 0.0 0.0 0.0 0.0 0.0 8.38271 11.6412 19.911 0.0 -0.792529 0.0 -9.06191 10.56654 4.03427 0.0 -13.4578495 0.0 7.99271 5.82837 11.6108 0.0 8.37317 0.0 19.4015 7.73196 -24.0962 0.0 -11.89032 0.0 
  -4.761990051269532 14.880699462890625 10.35469970703125 -86.2052 84.4506 70.7292 5.50995 -21.9402 -2.62551 -2.57913 37.3988 -0.513895 -2.60443 29.3329 5.92511 16.9753 -65.6187 14.0149 -116.9215 4.72409 -8.44351 -35.7412 -0.057336 32.2684 0.0 31.596 0.0 11.3647 -6.28291 2.52486 0.0 0.0 0.0 0.0 0.0 0.0 120.405 1.08019 1.48749 38.6851 8.4418 -19.7202 0.0 17.632 0.0 -1.35157 32.8087 18.8617 0.0 0.0 0.0 0.0 0.0 0.0 8.60336 11.6026 20.0989 0.0 -0.695228 0.0 -9.22444 10.51766 3.94313 0.0 -13.43827 0.0 8.18156 5.8935 11.7115 0.0 8.22318 0.0 19.2886 7.70363 -24.0591 0.0 -11.8408 0.0 
